<?xml version="1.0" encoding="utf-8"?>
<!-- Generator: Adobe Illustrator 18.1.1, SVG Export Plug-In . SVG Version: 6.00 Build 0)  -->
<svg version="1.1" id="Layer_2" xmlns="http://www.w3.org/2000/svg" xmlns:xlink="http://www.w3.org/1999/xlink" x="0px" y="0px"
	 viewBox="0 0 241 230.2" enable-background="new 0 0 241 230.2" xml:space="preserve">
<polygon fill="#F84545" points="185,185.6 188.1,178.7 231,198.3 221.2,218.9 "/>
<polygon fill="#F84545" points="193.3,162.8 190.8,169.4 229.1,192.4 235.9,172.2 "/>
<polyline fill="#F84545" points="194.7,154.5 237.9,168.6 241,148.2 197.5,146.7 "/>
<polyline fill="#F84545" points="196.9,139.2 238.9,144.2 238.9,124.6 196.9,131.1 "/>
<polyline fill="#F84545" points="196.7,122.7 239,121.2 237.2,99.7 196.7,113.7 "/>
<polyline fill="#F84545" points="192,106.2 236.6,95 229.7,74.5 190.2,99.7 "/>
<polyline fill="#F84545" points="186.1,91.2 181.8,84.4 216.3,51.7 227.5,71.5 "/>
<polyline fill="#F84545" points="176.5,77.9 213.4,49.9 198.3,34 169.3,71.8 "/>
<polyline fill="#F84545" points="163.5,68.5 194.9,30.6 175.3,18.7 155.7,63.6 "/>
<polyline fill="#F84545" points="148.8,59.8 172.1,16.9 150.3,8.2 141,57 "/>
<polyline fill="#F84545" points="132.4,54.3 147,6.7 124.3,3.9 124.3,54.3 "/>
<polyline fill="#F84545" points="115.5,54.3 118.3,3.9 97.4,5.8 105.8,54.3 "/>
<polyline fill="#F84545" points="98.6,56.5 93.9,5.5 72.2,12.3 92.4,57.8 "/>
<polyline fill="#F84545" points="85.4,60.4 68.4,12.8 48.8,22.5 78.1,64.5 "/>
<polyline fill="#F84545" points="68.5,68.5 44.2,23.4 24,36.2 62.9,74.5 "/>
<polyline fill="#F84545" points="58.5,79.7 24,38.7 0,55.9 52.9,86.6 "/>
<path stroke="#000000" stroke-miterlimit="10" d="M180,182.1c0,0,37-78.8-22.2-112.4s-102,16.9-102,16.9l13.7,8.1
	c0,0,25.1-30.7,75.5-9.7s26,89.5,26,89.5L180,182.1z"/>
<path stroke="#000000" stroke-miterlimit="10" d="M164.9,175.2c0,0-17.1-7.8-29.3-22.4c-12.2-14.6-9.9-26.9-33.5-38.2
	s-37.8-7.3-37.8-7.3s29.7-43,79.1-16.9S164.9,175.2,164.9,175.2z"/>
<path stroke="#000000" stroke-miterlimit="10" d="M166.3,178.7c0,0-10.2,1.2-26.4-12.7s-24.3-41.5-45.1-48.2s-35.2-3.8-35.2-3.8
	s-24.3,41.8-24.8,46.5s21.8-26.2,21.8-26.2s15.5-9.8,31.8,9.8c-1.7,3.7-10.8,6.7-16.1,7.7c-5.3,0.9-18.9-2.8-18.9-2.8l-26.1,81.2
	c0,0,30.5-3.1,55.8-14.4c19.8-8.8,34.7-26.3,40.4-26.2c5.7,0.1,12.6,12.3,25,17.9c15.5,7.1,36.4,8,36.4,8L170.3,196L166.3,178.7z"/>
</svg>
